<?xml version="1.0" standalone="no"?>
<!DOCTYPE svg PUBLIC "-//W3C//DTD SVG 20010904//EN"
 "http://www.w3.org/TR/2001/REC-SVG-20010904/DTD/svg10.dtd">
<svg version="1.0" xmlns="http://www.w3.org/2000/svg"
 width="1057.000000pt" height="793.000000pt" viewBox="0 0 1057.000000 793.000000"
 preserveAspectRatio="xMidYMid meet">
<metadata>
Created by potrace 1.12, written by Peter Selinger 2001-2015
</metadata>
<g transform="translate(0.000000,793.000000) scale(0.100000,-0.100000)"
fill="#000000" stroke="none">
<path d="M0 3965 l0 -3965 90 0 90 0 0 3965 0 3965 -90 0 -90 0 0 -3965z"/>
<path d="M290 3965 l0 -3965 45 0 45 0 0 3965 0 3965 -45 0 -45 0 0 -3965z"/>
<path d="M560 3965 l0 -3965 55 0 55 0 0 3965 0 3965 -55 0 -55 0 0 -3965z"/>
<path d="M760 3965 l0 -3965 85 0 85 0 0 3965 0 3965 -85 0 -85 0 0 -3965z"/>
<path d="M1050 3965 l0 -3965 40 0 40 0 0 3965 0 3965 -40 0 -40 0 0 -3965z"/>
<path d="M1310 3965 l0 -3965 60 0 60 0 0 3965 0 3965 -60 0 -60 0 0 -3965z"/>
<path d="M1510 3965 l0 -3965 90 0 90 0 0 3965 0 3965 -90 0 -90 0 0 -3965z"/>
<path d="M1810 3965 l0 -3965 40 0 40 0 0 3965 0 3965 -40 0 -40 0 0 -3965z"/>
<path d="M2070 3965 l0 -3965 55 0 55 0 0 3965 0 3965 -55 0 -55 0 0 -3965z"/>
<path d="M2270 3965 l0 -3965 85 0 85 0 0 3965 0 3965 -85 0 -85 0 0 -3965z"/>
<path d="M2560 3965 l0 -3965 45 0 45 0 0 3965 0 3965 -45 0 -45 0 0 -3965z"/>
<path d="M2820 3965 l0 -3965 60 0 60 0 0 3965 0 3965 -60 0 -60 0 0 -3965z"/>
<path d="M3020 3965 l0 -3965 90 0 90 0 0 3965 0 3965 -90 0 -90 0 0 -3965z"/>
<path d="M3320 3965 l0 -3965 40 0 40 0 0 3965 0 3965 -40 0 -40 0 0 -3965z"/>
<path d="M3580 3965 l0 -3965 60 0 60 0 0 3965 0 3965 -60 0 -60 0 0 -3965z"/>
<path d="M3780 3965 l0 -3965 90 0 90 0 0 3965 0 3965 -90 0 -90 0 0 -3965z"/>
<path d="M4070 3965 l0 -3965 45 0 45 0 0 3965 0 3965 -45 0 -45 0 0 -3965z"/>
<path d="M4330 3965 l0 -3965 60 0 60 0 0 3965 0 3965 -60 0 -60 0 0 -3965z"/>
<path d="M4530 3965 l0 -3965 90 0 90 0 0 3965 0 3965 -90 0 -90 0 0 -3965z"/>
<path d="M4830 3965 l0 -3965 40 0 40 0 0 3965 0 3965 -40 0 -40 0 0 -3965z"/>
<path d="M5090 3965 l0 -3965 60 0 60 0 0 3965 0 3965 -60 0 -60 0 0 -3965z"/>
<path d="M5290 3965 l0 -3965 90 0 90 0 0 3965 0 3965 -90 0 -90 0 0 -3965z"/>
<path d="M5590 3965 l0 -3965 40 0 40 0 0 3965 0 3965 -40 0 -40 0 0 -3965z"/>
<path d="M5850 3965 l0 -3965 55 0 55 0 0 3965 0 3965 -55 0 -55 0 0 -3965z"/>
<path d="M6050 3965 l0 -3965 85 0 85 0 0 3965 0 3965 -85 0 -85 0 0 -3965z"/>
<path d="M6340 3965 l0 -3965 40 0 40 0 0 3965 0 3965 -40 0 -40 0 0 -3965z"/>
<path d="M6600 3965 l0 -3965 60 0 60 0 0 3965 0 3965 -60 0 -60 0 0 -3965z"/>
<path d="M6800 3965 l0 -3965 90 0 90 0 0 3965 0 3965 -90 0 -90 0 0 -3965z"/>
<path d="M7100 3965 l0 -3965 40 0 40 0 0 3965 0 3965 -40 0 -40 0 0 -3965z"/>
<path d="M7360 3965 l0 -3965 60 0 60 0 0 3965 0 3965 -60 0 -60 0 0 -3965z"/>
<path d="M7560 3965 l0 -3965 90 0 90 0 0 3965 0 3965 -90 0 -90 0 0 -3965z"/>
<path d="M7850 3965 l0 -3965 45 0 45 0 0 3965 0 3965 -45 0 -45 0 0 -3965z"/>
<path d="M8110 3965 l0 -3965 60 0 60 0 0 3965 0 3965 -60 0 -60 0 0 -3965z"/>
<path d="M8310 3965 l0 -3965 90 0 90 0 0 3965 0 3965 -90 0 -90 0 0 -3965z"/>
<path d="M8610 3965 l0 -3965 40 0 40 0 0 3965 0 3965 -40 0 -40 0 0 -3965z"/>
<path d="M8870 3965 l0 -3965 60 0 60 0 0 3965 0 3965 -60 0 -60 0 0 -3965z"/>
<path d="M9070 3965 l0 -3965 80 0 80 0 0 3965 0 3965 -80 0 -80 0 0 -3965z"/>
<path d="M9350 3965 l0 -3965 40 0 40 0 0 3965 0 3965 -40 0 -40 0 0 -3965z"/>
<path d="M9610 3965 l0 -3965 60 0 60 0 0 3965 0 3965 -60 0 -60 0 0 -3965z"/>
<path d="M9810 3965 l0 -3965 90 0 90 0 0 3965 0 3965 -90 0 -90 0 0 -3965z"/>
<path d="M10110 3965 l0 -3965 40 0 40 0 0 3965 0 3965 -40 0 -40 0 0 -3965z"/>
<path d="M10370 3965 l0 -3965 60 0 60 0 0 3965 0 3965 -60 0 -60 0 0 -3965z"/>
</g>
</svg>
