<?xml version="1.0" standalone="no"?>
<!DOCTYPE svg PUBLIC "-//W3C//DTD SVG 20010904//EN"
 "http://www.w3.org/TR/2001/REC-SVG-20010904/DTD/svg10.dtd">
<svg version="1.0" xmlns="http://www.w3.org/2000/svg"
 width="907.000000pt" height="680.000000pt" viewBox="0 0 907.000000 680.000000"
 preserveAspectRatio="xMidYMid meet">
<metadata>
Created by potrace 1.12, written by Peter Selinger 2001-2015
</metadata>
<g transform="translate(0.000000,680.000000) scale(0.100000,-0.100000)"
fill="#000000" stroke="none">
<path d="M0 3400 l0 -3400 90 0 90 0 0 3400 0 3400 -90 0 -90 0 0 -3400z"/>
<path d="M290 3400 l0 -3400 45 0 45 0 0 3400 0 3400 -45 0 -45 0 0 -3400z"/>
<path d="M560 3400 l0 -3400 55 0 55 0 0 3400 0 3400 -55 0 -55 0 0 -3400z"/>
<path d="M760 3400 l0 -3400 85 0 85 0 0 3400 0 3400 -85 0 -85 0 0 -3400z"/>
<path d="M1050 3400 l0 -3400 40 0 40 0 0 3400 0 3400 -40 0 -40 0 0 -3400z"/>
<path d="M1310 3400 l0 -3400 60 0 60 0 0 3400 0 3400 -60 0 -60 0 0 -3400z"/>
<path d="M1510 3400 l0 -3400 90 0 90 0 0 3400 0 3400 -90 0 -90 0 0 -3400z"/>
<path d="M1810 3400 l0 -3400 40 0 40 0 0 3400 0 3400 -40 0 -40 0 0 -3400z"/>
<path d="M2070 3400 l0 -3400 55 0 55 0 0 3400 0 3400 -55 0 -55 0 0 -3400z"/>
<path d="M2270 3400 l0 -3400 85 0 85 0 0 3400 0 3400 -85 0 -85 0 0 -3400z"/>
<path d="M2560 3400 l0 -3400 45 0 45 0 0 3400 0 3400 -45 0 -45 0 0 -3400z"/>
<path d="M2820 3400 l0 -3400 60 0 60 0 0 3400 0 3400 -60 0 -60 0 0 -3400z"/>
<path d="M3020 3400 l0 -3400 90 0 90 0 0 3400 0 3400 -90 0 -90 0 0 -3400z"/>
<path d="M3320 3400 l0 -3400 40 0 40 0 0 3400 0 3400 -40 0 -40 0 0 -3400z"/>
<path d="M3580 3400 l0 -3400 60 0 60 0 0 3400 0 3400 -60 0 -60 0 0 -3400z"/>
<path d="M3780 3400 l0 -3400 90 0 90 0 0 3400 0 3400 -90 0 -90 0 0 -3400z"/>
<path d="M4070 3400 l0 -3400 45 0 45 0 0 3400 0 3400 -45 0 -45 0 0 -3400z"/>
<path d="M4330 3400 l0 -3400 60 0 60 0 0 3400 0 3400 -60 0 -60 0 0 -3400z"/>
<path d="M4530 3400 l0 -3400 90 0 90 0 0 3400 0 3400 -90 0 -90 0 0 -3400z"/>
<path d="M4830 3400 l0 -3400 40 0 40 0 0 3400 0 3400 -40 0 -40 0 0 -3400z"/>
<path d="M5090 3400 l0 -3400 60 0 60 0 0 3400 0 3400 -60 0 -60 0 0 -3400z"/>
<path d="M5290 3400 l0 -3400 90 0 90 0 0 3400 0 3400 -90 0 -90 0 0 -3400z"/>
<path d="M5590 3400 l0 -3400 40 0 40 0 0 3400 0 3400 -40 0 -40 0 0 -3400z"/>
<path d="M5850 3400 l0 -3400 55 0 55 0 0 3400 0 3400 -55 0 -55 0 0 -3400z"/>
<path d="M6050 3400 l0 -3400 85 0 85 0 0 3400 0 3400 -85 0 -85 0 0 -3400z"/>
<path d="M6340 3400 l0 -3400 40 0 40 0 0 3400 0 3400 -40 0 -40 0 0 -3400z"/>
<path d="M6600 3400 l0 -3400 60 0 60 0 0 3400 0 3400 -60 0 -60 0 0 -3400z"/>
<path d="M6800 3400 l0 -3400 90 0 90 0 0 3400 0 3400 -90 0 -90 0 0 -3400z"/>
<path d="M7100 3400 l0 -3400 40 0 40 0 0 3400 0 3400 -40 0 -40 0 0 -3400z"/>
<path d="M7360 3400 l0 -3400 60 0 60 0 0 3400 0 3400 -60 0 -60 0 0 -3400z"/>
<path d="M7560 3400 l0 -3400 90 0 90 0 0 3400 0 3400 -90 0 -90 0 0 -3400z"/>
<path d="M7850 3400 l0 -3400 45 0 45 0 0 3400 0 3400 -45 0 -45 0 0 -3400z"/>
<path d="M8110 3400 l0 -3400 60 0 60 0 0 3400 0 3400 -60 0 -60 0 0 -3400z"/>
<path d="M8310 3400 l0 -3400 90 0 90 0 0 3400 0 3400 -90 0 -90 0 0 -3400z"/>
<path d="M8610 3400 l0 -3400 40 0 40 0 0 3400 0 3400 -40 0 -40 0 0 -3400z"/>
<path d="M8870 3400 l0 -3400 60 0 60 0 0 3400 0 3400 -60 0 -60 0 0 -3400z"/>
</g>
</svg>
