<?xml version="1.0" standalone="no"?>
<!DOCTYPE svg PUBLIC "-//W3C//DTD SVG 20010904//EN"
 "http://www.w3.org/TR/2001/REC-SVG-20010904/DTD/svg10.dtd">
<svg version="1.0" xmlns="http://www.w3.org/2000/svg"
 width="1040.000000pt" height="780.000000pt" viewBox="0 0 1040.000000 780.000000"
 preserveAspectRatio="xMidYMid meet">
<metadata>
Created by potrace 1.12, written by Peter Selinger 2001-2015
</metadata>
<g transform="translate(0.000000,780.000000) scale(0.100000,-0.100000)"
fill="#000000" stroke="none">
<path d="M0 3900 l0 -3900 150 0 150 0 0 3900 0 3900 -150 0 -150 0 0 -3900z"/>
<path d="M510 3900 l0 -3900 70 0 70 0 0 3900 0 3900 -70 0 -70 0 0 -3900z"/>
<path d="M950 3900 l0 -3900 105 0 105 0 0 3900 0 3900 -105 0 -105 0 0 -3900z"/>
<path d="M1300 3900 l0 -3900 150 0 150 0 0 3900 0 3900 -150 0 -150 0 0
-3900z"/>
<path d="M1810 3900 l0 -3900 70 0 70 0 0 3900 0 3900 -70 0 -70 0 0 -3900z"/>
<path d="M2250 3900 l0 -3900 105 0 105 0 0 3900 0 3900 -105 0 -105 0 0
-3900z"/>
<path d="M2600 3900 l0 -3900 150 0 150 0 0 3900 0 3900 -150 0 -150 0 0
-3900z"/>
<path d="M3110 3900 l0 -3900 70 0 70 0 0 3900 0 3900 -70 0 -70 0 0 -3900z"/>
<path d="M3550 3900 l0 -3900 105 0 105 0 0 3900 0 3900 -105 0 -105 0 0
-3900z"/>
<path d="M3900 3900 l0 -3900 150 0 150 0 0 3900 0 3900 -150 0 -150 0 0
-3900z"/>
<path d="M4410 3900 l0 -3900 70 0 70 0 0 3900 0 3900 -70 0 -70 0 0 -3900z"/>
<path d="M4850 3900 l0 -3900 105 0 105 0 0 3900 0 3900 -105 0 -105 0 0
-3900z"/>
<path d="M5200 3900 l0 -3900 150 0 150 0 0 3900 0 3900 -150 0 -150 0 0
-3900z"/>
<path d="M5710 3900 l0 -3900 70 0 70 0 0 3900 0 3900 -70 0 -70 0 0 -3900z"/>
<path d="M6150 3900 l0 -3900 105 0 105 0 0 3900 0 3900 -105 0 -105 0 0
-3900z"/>
<path d="M6500 3900 l0 -3900 150 0 150 0 0 3900 0 3900 -150 0 -150 0 0
-3900z"/>
<path d="M7010 3900 l0 -3900 70 0 70 0 0 3900 0 3900 -70 0 -70 0 0 -3900z"/>
<path d="M7450 3900 l0 -3900 105 0 105 0 0 3900 0 3900 -105 0 -105 0 0
-3900z"/>
<path d="M7800 3900 l0 -3900 150 0 150 0 0 3900 0 3900 -150 0 -150 0 0
-3900z"/>
<path d="M8310 3900 l0 -3900 70 0 70 0 0 3900 0 3900 -70 0 -70 0 0 -3900z"/>
<path d="M8750 3900 l0 -3900 105 0 105 0 0 3900 0 3900 -105 0 -105 0 0
-3900z"/>
<path d="M9100 3900 l0 -3900 150 0 150 0 0 3900 0 3900 -150 0 -150 0 0
-3900z"/>
<path d="M9610 3900 l0 -3900 70 0 70 0 0 3900 0 3900 -70 0 -70 0 0 -3900z"/>
<path d="M10050 3900 l0 -3900 105 0 105 0 0 3900 0 3900 -105 0 -105 0 0
-3900z"/>
</g>
</svg>
